<?xml version="1.0" encoding="UTF-8"?>
<svg id="Layer_1" xmlns="http://www.w3.org/2000/svg" version="1.1" viewBox="0 0 16 16">
  <!-- Generator: Adobe Illustrator 29.1.0, SVG Export Plug-In . SVG Version: 2.1.0 Build 142)  -->
  <defs>
    <style>
      .st0 {
        fill: #800020;
      }
    </style>
  </defs>
  <path class="st0" d="M4.82,10.18c0,.15,0,.41-.03.77h-.1s-.12,0-.26-.02c-.14-.01-.29-.02-.46-.02l-3.7-.03c-.1,0-.15-.03-.15-.08,0-.04.08-.07.24-.08.23-.01.36-.04.41-.08.04-.04.07-.15.07-.33v-5.01c0-.22-.02-.35-.07-.38s-.2-.05-.48-.05c-.11,0-.17-.03-.17-.1,0-.05.04-.08.11-.08h.08c.2.02.58.03,1.17.03.05,0,.16,0,.31-.01.15,0,.28-.01.38-.01h.1c.11,0,.16.03.16.09,0,.04-.02.06-.05.07-.03,0-.14.02-.31.02-.17,0-.27.03-.31.08-.03.05-.05.21-.05.47v5.25c.16,0,.38,0,.67,0,.69,0,1.18-.04,1.47-.11.28-.07.48-.2.58-.4.1-.2.16-.46.18-.79,0-.08.04-.12.1-.12.07,0,.11.04.1.13v.77Z"/>
  <path class="st0" d="M9.75,9.15c0,.51-.19.95-.58,1.3-.39.36-.86.54-1.4.54-.32,0-.7-.1-1.15-.29-.12-.05-.21-.08-.27-.08-.07,0-.12.08-.13.25,0,.08-.04.13-.12.13-.06,0-.09-.04-.09-.11,0-.05,0-.08,0-.11.05-.36.07-.7.07-1.01,0-.06,0-.23-.02-.5,0-.04,0-.08,0-.14,0-.09.04-.13.11-.13.06,0,.1.07.12.22.15,1.07.66,1.6,1.51,1.6.36,0,.64-.1.84-.31.2-.21.3-.49.3-.87,0-.33-.1-.62-.29-.85-.19-.23-.52-.47-.99-.7-.56-.28-.96-.55-1.18-.81-.22-.26-.33-.58-.33-.97,0-.49.16-.9.48-1.22.32-.32.72-.48,1.21-.48.2,0,.48.07.84.21.12.05.22.07.28.07.07,0,.11-.01.13-.04s.04-.09.06-.19c.01-.06.04-.09.1-.09.06,0,.09.04.09.11,0,.05,0,.08,0,.11-.02.14-.03.31-.03.52,0,.29.01.51.04.68v.14c.02.07-.01.1-.07.1-.07,0-.11-.07-.13-.21-.07-.35-.22-.64-.46-.88-.24-.23-.52-.35-.82-.35s-.53.09-.71.28-.26.45-.26.77c0,.38.13.69.38.92.14.13.45.31.93.55.56.28.96.56,1.2.85s.37.62.37.98Z"/>
  <path class="st0" d="M15.76,6.29c0,.08-.04.12-.11.12s-.12-.08-.15-.23c-.01-.11-.02-.21-.04-.32-.04-.21-.11-.39-.21-.54-.12-.2-.33-.32-.61-.37-.18-.04-.33-.05-.45-.04-.28,0-.45.01-.51.02v5.38c0,.21.06.35.17.4.06.03.23.05.5.05.07,0,.11.03.11.08,0,.05-.05.08-.14.08-.05,0-.09,0-.12,0-.36-.01-.61-.02-.76-.02-.2,0-.38,0-.55.01-.17,0-.39.01-.66.01-.14,0-.2-.02-.2-.07,0-.05.13-.08.38-.09.18,0,.3-.04.36-.12.03-.05.04-.17.04-.37v-5.34c-.59,0-.95.04-1.1.09-.37.14-.59.5-.66,1.1-.02.18-.06.27-.12.27-.07,0-.11-.06-.11-.19,0-.07,0-.13,0-.2l.02-.2c.02-.27.04-.63.08-1.08h.4l1.82.03c.21,0,.55,0,1,0l1.48-.03c.01.33.05.83.12,1.48,0,.02,0,.04,0,.07s0,.04,0,.05Z"/>
</svg>